<?xml version="1.0" standalone="no"?>
<!DOCTYPE svg PUBLIC "-//W3C//DTD SVG 20010904//EN"
 "http://www.w3.org/TR/2001/REC-SVG-20010904/DTD/svg10.dtd">
<svg version="1.0" xmlns="http://www.w3.org/2000/svg"
 width="192.000000pt" height="192.000000pt" viewBox="0 0 192.000000 192.000000"
 preserveAspectRatio="xMidYMid meet">
<metadata>
Created by potrace 1.11, written by Peter Selinger 2001-2013
</metadata>
<g transform="translate(0.000000,192.000000) scale(0.100000,-0.100000)"
fill="#000000" stroke="none">
<path d="M870 1589 c-15 -27 -10 -30 51 -40 28 -4 57 -13 65 -20 26 -21 14
-109 -15 -109 -24 0 -41 20 -41 47 0 28 -11 29 -33 5 -28 -31 -22 -80 16 -114
l32 -31 -55 29 c-42 21 -69 28 -115 29 -54 0 -66 -4 -124 -43 -35 -23 -70 -42
-78 -42 -23 0 -84 32 -90 47 -9 23 -25 14 -18 -9 13 -42 55 -75 114 -92 69
-19 94 -19 145 -1 48 17 79 5 74 -28 -3 -21 -7 -22 -133 -22 -112 0 -137 -3
-176 -21 -66 -31 -128 -91 -155 -149 -31 -66 -16 -84 29 -34 71 80 131 91 241
44 l66 -28 -39 -18 c-44 -19 -96 -83 -106 -129 -10 -46 3 -55 35 -25 36 35 97
44 137 20 16 -9 44 -39 63 -66 l33 -49 -27 -92 c-46 -153 -80 -198 -150 -198
-41 0 -76 -18 -76 -39 0 -10 7 -22 16 -25 9 -3 121 -6 251 -6 226 0 235 1 240
20 5 18 14 20 98 20 87 0 93 1 98 22 8 30 -6 43 -49 46 -20 2 -45 7 -54 12
-10 5 -20 7 -23 3 -4 -3 -2 9 3 27 12 43 16 46 29 22 26 -49 54 -62 84 -39 16
11 15 18 -13 95 -16 45 -30 87 -30 93 0 6 16 1 35 -11 41 -25 66 -22 109 13
l29 24 -12 76 c-9 57 -9 90 -1 137 6 34 9 69 5 77 -3 9 0 22 6 30 13 15 0 71
-31 133 -17 34 -17 36 9 118 32 97 61 131 119 139 27 4 42 11 45 23 10 38 -5
42 -149 41 -130 -2 -138 -1 -122 15 9 9 38 22 65 29 41 10 48 16 51 39 l3 26
-235 0 c-228 0 -236 -1 -246 -21z m460 -4 c0 -9 -10 -15 -26 -15 -34 0 -93
-28 -107 -52 -9 -14 -24 -18 -68 -18 -46 0 -58 -3 -61 -17 -8 -32 3 -43 43
-43 25 0 39 -5 39 -12 0 -9 -22 -13 -73 -14 l-73 -1 4 56 c5 68 -14 91 -83 98
-43 5 -53 12 -38 26 3 4 105 7 225 7 187 0 218 -2 218 -15z m-145 -175 c3 -5
1 -10 -4 -10 -6 0 -11 5 -11 10 0 6 2 10 4 10 3 0 8 -4 11 -10z m63 -157 c34
-25 66 -72 88 -129 16 -42 16 -45 0 -63 -15 -16 -15 -22 -4 -40 11 -18 10 -23
-11 -37 -21 -15 -23 -22 -19 -89 2 -51 8 -77 21 -89 34 -34 18 -75 -41 -106
-21 -10 -30 -8 -75 23 -71 48 -187 145 -194 163 -8 22 3 54 41 117 20 32 30
57 23 55 -7 -3 -29 -38 -51 -80 -47 -91 -46 -92 63 -183 65 -54 80 -71 86
-102 4 -21 17 -64 30 -95 23 -56 23 -58 5 -68 -16 -9 -25 -2 -61 47 -53 73
-156 180 -191 199 -15 8 -47 14 -73 14 -25 0 -45 3 -45 8 0 21 52 215 71 267
40 108 95 175 165 201 52 19 137 13 172 -13z m-467 -272 c-8 -5 -20 -7 -28 -4
-21 8 -15 13 15 13 20 0 23 -3 13 -9z m72 -284 c10 -4 36 0 58 7 29 10 39 11
36 3 -5 -15 -31 -107 -47 -164 -9 -38 -15 -44 -51 -53 -21 -6 -44 -8 -49 -5
-10 6 -12 0 -12 -30 0 -8 0 -19 1 -25 1 -6 50 -10 127 -10 69 0 123 -3 121 -7
-3 -5 -114 -7 -246 -5 -152 2 -240 6 -236 12 3 6 21 10 38 10 18 0 50 9 73 19
48 22 78 73 114 200 21 71 25 79 39 67 9 -7 24 -16 34 -19z m147 31 c-1 -29
-70 -201 -77 -194 -10 10 50 196 63 196 8 0 14 -1 14 -2z"/>
<path d="M1190 1118 l-23 -19 23 -24 c27 -29 84 -50 102 -38 10 6 1 20 -33 54
-46 46 -46 46 -69 27z"/>
<path d="M1263 925 c-6 -11 -9 -24 -7 -30 1 -5 10 -36 19 -67 8 -32 20 -58 25
-58 5 0 7 7 4 14 -3 8 -11 48 -18 88 -10 61 -14 70 -23 53z"/>
<path d="M1225 850 c-7 -23 32 -101 54 -108 11 -4 12 0 6 14 -4 11 -15 40 -24
67 -16 51 -26 58 -36 27z"/>
</g>
</svg>
